<?xml version="1.0" standalone="no"?>
<!DOCTYPE svg PUBLIC "-//W3C//DTD SVG 1.1//EN" "http://www.w3.org/Graphics/SVG/1.1/DTD/svg11.dtd">
<svg width="100%" height="100%" viewBox="0 0 290 200" version="1.1" xmlns="http://www.w3.org/2000/svg" xmlns:xlink="http://www.w3.org/1999/xlink" xml:space="preserve" style="fill-rule:evenodd;clip-rule:evenodd;stroke-linejoin:round;stroke-miterlimit:1.41421;">
    <g transform="matrix(1,0,0,1,-43.3671,32.8685)">
        <path d="M125.28,98.504L176.369,7.675C179.139,2.752 185.385,1.003 190.308,3.772C195.232,6.542 196.98,12.787 194.211,17.711L155.765,86.061C163.561,84.385 170.531,83.771 175.355,83.564L207.462,26.482C210.232,21.559 216.477,19.81 221.401,22.579C226.325,25.349 228.073,31.595 225.304,36.518L196.03,88.561C202.118,88.601 207.881,89.014 213.407,89.796L239.17,43.994C241.939,39.071 248.185,37.322 253.108,40.091C258.032,42.861 259.781,49.106 257.011,54.03L234.104,94.755C250.54,100.406 265.718,109.888 282.699,123.057C259.79,106.984 235.071,90.858 194.846,92.128C206.934,94.349 218.267,96.712 226.64,100.197C203.478,96.026 187.035,96.266 174.456,99.684C155.028,104.963 131.115,126.737 111.069,125.104C96.637,123.929 92.599,118.42 95.847,101.946C95.67,101.63 108.688,108.288 125.28,98.504ZM174.477,85.125C166.109,87.041 158.02,89.52 151.98,92.79L151.599,93.468C158.78,92.034 165.533,90.917 171.926,90.113C172.135,89.444 172.418,88.786 172.775,88.15L174.477,85.125Z" style="fill:rgb(164,183,174);"/>
    </g>
</svg>
